# xmcd
#
# Track frame offsets: 
#        150
#        9052
#        27386
#        41438
#        62654
#        105227
#        126498
#        168651
#        190375
#        210635
#        244639
#        263023
#        280837
#
# Disc length: 3890 seconds
#
# Revision: 0
# Processed by: cddbd v1.5.2PL0 Copyright (c) Steve Scherf et al.
# Submitted via: ExactAudioCopy v0.99pb5
#
DISCID=ac0f300d
DTITLE=Songs Over Ruin - The Evil Influence Lingers On
DYEAR=2007
DGENRE=Military, Industrial, Experimental
TTITLE0=Wind And War Drum
TTITLE1=Evocation Ritual
TTITLE2=Revived: Army Of Deceased Soldiers
TTITLE3=Death SS Rendezvousing
TTITLE4=Force Of Rust Iron
TTITLE5=Eternal Vow To Conquer
TTITLE6=Summon: An Aerial Attack AlarmSignal
TTITLE7=Cold Memory In The East Front
TTITLE8=Relaunch Of Panzer Division
TTITLE9=Warfare Adherent
TTITLE10=Die In The Last Ditch
TTITLE11=Wrack And Ruin
TTITLE12=Outro: The Evil Influence Lingers On
EXTD=
EXTT0=
EXTT1=
EXTT2=
EXTT3=
EXTT4=
EXTT5=
EXTT6=
EXTT7=
EXTT8=
EXTT9=
EXTT10=
EXTT11=
EXTT12=
PLAYORDER=
